<svg xmlns="http://www.w3.org/2000/svg" width="27.5" height="27.5">
    <defs>
        <filter id="a">
            <feFlood flood-color="#FFF" flood-opacity="1" result="floodOut"/>
            <feComposite in="floodOut" in2="SourceGraphic" operator="atop" result="compOut"/>
            <feBlend in="compOut" in2="SourceGraphic"/>
        </filter>
    </defs>
    <path fill="none" stroke="#E5E5E5" d="M17 19.5a9.445 9.445 0 0 1-5.381-1.675l-8.882 8.263-1.362-1.464 8.72-8.113A9.455 9.455 0 0 1 7.5 10 9.5 9.5 0 0 1 17 .5a9.5 9.5 0 0 1 9.5 9.5 9.5 9.5 0 0 1-9.5 9.5z" filter="url(#a)"/>
    <path fill="none" stroke="#E5E5E5" d="M17 19.5a9.445 9.445 0 0 1-5.381-1.675l-8.882 8.263-1.362-1.464 8.72-8.113A9.455 9.455 0 0 1 7.5 10 9.5 9.5 0 0 1 17 .5a9.5 9.5 0 0 1 9.5 9.5 9.5 9.5 0 0 1-9.5 9.5z"/>
</svg>
